<svg xmlns="http://www.w3.org/2000/svg" xmlns:xlink="http://www.w3.org/1999/xlink" width="1000" zoomAndPan="magnify" viewBox="0 0 750 1189.49997" height="1586" preserveAspectRatio="xMidYMid meet" version="1.0"><defs><clipPath id="a3ec184f39"><path d="M 0.15625 0 L 749.824219 0 L 749.824219 1189 L 0.15625 1189 Z M 0.15625 0 " clip-rule="nonzero"/></clipPath><clipPath id="e3b7e4866d"><path d="M 749.824219 22.488281 L 749.824219 1166.511719 C 749.824219 1172.476562 747.453125 1178.195312 743.234375 1182.414062 C 739.019531 1186.628906 733.296875 1189 727.332031 1189 L 22.648438 1189 C 16.683594 1189 10.960938 1186.628906 6.746094 1182.414062 C 2.527344 1178.195312 0.15625 1172.476562 0.15625 1166.511719 L 0.15625 22.488281 C 0.15625 16.523438 2.527344 10.804688 6.746094 6.585938 C 10.960938 2.371094 16.683594 0 22.648438 0 L 727.332031 0 C 733.296875 0 739.019531 2.371094 743.234375 6.585938 C 747.453125 10.804688 749.824219 16.523438 749.824219 22.488281 Z M 749.824219 22.488281 " clip-rule="nonzero"/></clipPath><clipPath id="948888539e"><path d="M 0.15625 0 L 749.824219 0 L 749.824219 1189 L 0.15625 1189 Z M 0.15625 0 " clip-rule="nonzero"/></clipPath><clipPath id="e8fc7ba3cb"><path d="M 749.824219 22.488281 L 749.824219 1166.511719 C 749.824219 1172.476562 747.453125 1178.195312 743.234375 1182.414062 C 739.019531 1186.628906 733.296875 1189 727.332031 1189 L 22.648438 1189 C 16.683594 1189 10.960938 1186.628906 6.746094 1182.414062 C 2.527344 1178.195312 0.15625 1172.476562 0.15625 1166.511719 L 0.15625 22.488281 C 0.15625 16.523438 2.527344 10.804688 6.746094 6.585938 C 10.960938 2.371094 16.683594 0 22.648438 0 L 727.332031 0 C 733.296875 0 739.019531 2.371094 743.234375 6.585938 C 747.453125 10.804688 749.824219 16.523438 749.824219 22.488281 Z M 749.824219 22.488281 " clip-rule="nonzero"/></clipPath><clipPath id="43a98878ec"><rect x="0" width="750" y="0" height="1189"/></clipPath></defs><g clip-path="url(#a3ec184f39)"><g clip-path="url(#e3b7e4866d)"><g transform="matrix(1, 0, 0, 1, 0, 0)"><g clip-path="url(#43a98878ec)"><g clip-path="url(#948888539e)"><g clip-path="url(#e8fc7ba3cb)"><path fill="#0030a4" d="M 0.15625 0 L 749.824219 0 L 749.824219 1188.921875 L 0.15625 1188.921875 Z M 0.15625 0 " fill-opacity="1" fill-rule="nonzero"/></g></g></g></g></g></g></svg>