<svg width="40" height="40" viewBox="0 0 40 40" fill="none" xmlns="http://www.w3.org/2000/svg">
<path d="M39.3219 15.5578L28.0634 17.4394L28.8411 15.7489L38.9049 13.989C39.0652 14.503 39.2042 15.0265 39.3219 15.5578Z" fill="#061F57"/>
<path d="M24.5243 25.1308L39.6298 22.4881C38.3609 32.2536 30.0106 39.7949 19.8986 39.7949C8.90858 39.7949 0 30.8868 0 19.8974C0 8.90805 8.90858 0 19.8986 0C28.3753 0 35.6138 5.29967 38.4809 12.7659L29.525 14.2638L32.9275 6.86935L26.7147 8.0103L22.9103 15.6179L18.4726 16.3783L22.0227 8.89779L15.5565 10.1659L4.4614 30.6428L11.816 29.7554L15.6196 22.2741L20.3108 21.2603L16.8238 28.6776L23.418 27.5358L24.5243 25.1308Z" fill="#061F57"/>
<path d="M39.7948 19.5879L26.015 21.8919L27.0068 19.7364V19.7356L39.6566 17.5232C39.7379 18.2014 39.7845 18.8907 39.7948 19.5879Z" fill="#061F57"/>
</svg>
