<svg xmlns="http://www.w3.org/2000/svg" xmlns:xlink="http://www.w3.org/1999/xlink" width="935" zoomAndPan="magnify" viewBox="0 0 701.25 898.499972" height="1198" preserveAspectRatio="xMidYMid meet" version="1.0"><defs><clipPath id="3c8a8f73cf"><path d="M 0 0.230469 L 700.5 0.230469 L 700.5 897.769531 L 0 897.769531 Z M 0 0.230469 " clip-rule="nonzero"/></clipPath><clipPath id="9f8f7105d4"><path d="M 24.164062 0.230469 L 676.335938 0.230469 C 682.746094 0.230469 688.890625 2.777344 693.421875 7.308594 C 697.953125 11.839844 700.5 17.988281 700.5 24.394531 L 700.5 873.605469 C 700.5 880.015625 697.953125 886.160156 693.421875 890.691406 C 688.890625 895.222656 682.746094 897.769531 676.335938 897.769531 L 24.164062 897.769531 C 17.757812 897.769531 11.609375 895.222656 7.078125 890.691406 C 2.546875 886.160156 0 880.015625 0 873.605469 L 0 24.394531 C 0 17.988281 2.546875 11.839844 7.078125 7.308594 C 11.609375 2.777344 17.757812 0.230469 24.164062 0.230469 Z M 24.164062 0.230469 " clip-rule="nonzero"/></clipPath><clipPath id="176e134058"><path d="M 0 0.230469 L 700.5 0.230469 L 700.5 897.769531 L 0 897.769531 Z M 0 0.230469 " clip-rule="nonzero"/></clipPath><clipPath id="f2d5f985f4"><path d="M 24.164062 0.230469 L 676.335938 0.230469 C 682.746094 0.230469 688.890625 2.777344 693.421875 7.308594 C 697.953125 11.839844 700.5 17.988281 700.5 24.394531 L 700.5 873.605469 C 700.5 880.015625 697.953125 886.160156 693.421875 890.691406 C 688.890625 895.222656 682.746094 897.769531 676.335938 897.769531 L 24.164062 897.769531 C 17.757812 897.769531 11.609375 895.222656 7.078125 890.691406 C 2.546875 886.160156 0 880.015625 0 873.605469 L 0 24.394531 C 0 17.988281 2.546875 11.839844 7.078125 7.308594 C 11.609375 2.777344 17.757812 0.230469 24.164062 0.230469 Z M 24.164062 0.230469 " clip-rule="nonzero"/></clipPath><clipPath id="c303d52154"><rect x="0" width="701" y="0" height="898"/></clipPath></defs><g clip-path="url(#3c8a8f73cf)"><g clip-path="url(#9f8f7105d4)"><g transform="matrix(1, 0, 0, 1, 0, -0.000000000000036138)"><g clip-path="url(#c303d52154)"><g clip-path="url(#176e134058)"><g clip-path="url(#f2d5f985f4)"><path fill="#ffffff" d="M 0 0.230469 L 700.5 0.230469 L 700.5 897.746094 L 0 897.746094 Z M 0 0.230469 " fill-opacity="1" fill-rule="nonzero"/></g></g></g></g></g></g></svg>